<?xml version="1.0" standalone="no"?>
<!DOCTYPE svg PUBLIC "-//W3C//DTD SVG 20010904//EN"
 "http://www.w3.org/TR/2001/REC-SVG-20010904/DTD/svg10.dtd">
<svg version="1.0" xmlns="http://www.w3.org/2000/svg"
 width="355.000000pt" height="355.000000pt" viewBox="0 0 355.000000 355.000000"
 preserveAspectRatio="xMidYMid meet">
<metadata>
Created by potrace 1.11, written by Peter Selinger 2001-2013
</metadata>
<g transform="translate(0.000000,355.000000) scale(0.100000,-0.100000)"
fill="#000000" stroke="none">
<path d="M1840 3195 c-19 -8 -111 -38 -205 -69 -300 -96 -918 -297 -980 -318
-33 -11 -67 -22 -75 -24 -15 -3 -41 -11 -127 -35 -24 -6 -54 -23 -68 -37 -44
-44 -48 -77 -60 -502 -3 -107 -8 -256 -10 -330 -2 -74 -7 -265 -10 -425 -9
-397 -9 -398 -19 -413 -5 -9 -3 -19 5 -27 14 -13 352 -207 709 -407 113 -63
228 -128 255 -143 28 -16 106 -57 174 -93 125 -64 125 -64 190 -58 54 5 277
71 356 105 11 5 94 35 185 66 91 31 194 67 230 80 36 13 112 40 170 60 58 20
141 49 185 65 44 16 127 45 185 65 167 58 189 67 199 79 6 7 13 52 16 101 3
50 8 115 10 145 7 80 14 184 20 275 3 44 7 105 10 135 3 30 7 91 10 135 3 44
7 109 10 145 3 36 7 101 10 145 3 44 8 103 10 130 2 28 7 94 10 147 4 54 11
113 16 130 5 18 9 58 9 89 0 48 -4 59 -27 81 -16 13 -46 34 -68 44 -59 29
-318 165 -330 174 -5 4 -73 40 -150 80 -77 40 -203 107 -280 148 -443 236
-512 272 -521 271 -5 -1 -25 -7 -44 -14z"/>
</g>
</svg>
