<?xml version="1.0" standalone="no"?>
<!DOCTYPE svg PUBLIC "-//W3C//DTD SVG 20010904//EN"
 "http://www.w3.org/TR/2001/REC-SVG-20010904/DTD/svg10.dtd">
<svg version="1.0" xmlns="http://www.w3.org/2000/svg"
 width="600.000000pt" height="600.000000pt" viewBox="0 0 600.000000 600.000000"
 preserveAspectRatio="xMidYMid meet">
<metadata>
Created by potrace 1.11, written by Peter Selinger 2001-2013
</metadata>
<g transform="translate(0.000000,600.000000) scale(0.100000,-0.100000)"
fill="#000000" stroke="none">
<path d="M2789 5995 c-2 -2 -26 -4 -54 -6 -27 -1 -55 -4 -61 -6 -14 -5 -16
-1681 -2 -1689 6 -4 167 -6 358 -6 l348 0 138 -307 c140 -312 153 -341 244
-541 29 -63 70 -155 92 -205 22 -49 50 -112 63 -140 13 -27 34 -75 48 -105 14
-30 39 -86 57 -125 18 -38 57 -126 87 -195 31 -69 75 -167 99 -218 24 -52 44
-95 44 -97 0 -1 12 -29 26 -61 l26 -59 21 40 c11 22 60 130 109 240 49 110
100 223 113 250 13 28 75 167 140 310 64 143 132 293 151 333 18 40 34 75 34
77 0 3 19 44 41 92 23 49 58 126 79 173 21 47 49 110 63 140 14 30 57 127 97
215 39 88 76 165 81 171 7 8 72 12 219 12 116 1 221 1 235 1 30 1 30 1 -43
135 -78 143 -178 299 -259 401 -104 131 -149 182 -262 295 -75 75 -170 163
-211 195 -41 33 -77 62 -80 65 -22 24 -224 159 -325 217 -66 38 -254 136 -265
138 -3 1 -26 11 -52 23 -90 42 -339 127 -448 152 -94 22 -292 59 -345 66 -33
3 -69 8 -80 11 -24 6 -521 14 -526 8z"/>
<path d="M1655 5683 c-587 -298 -1062 -775 -1346 -1353 -124 -252 -225 -559
-264 -800 -4 -25 -9 -54 -11 -65 -2 -11 -6 -42 -9 -70 -3 -27 -7 -61 -10 -75
-3 -14 -8 -96 -11 -182 l-7 -157 34 9 c19 5 49 12 67 15 18 3 65 12 105 21 39
8 83 18 97 20 14 3 63 14 110 24 47 10 101 22 120 25 19 3 55 11 80 16 25 6
56 13 70 15 14 3 53 12 88 20 81 18 88 18 88 -3 6 -163 68 -328 156 -416 80
-80 164 -116 287 -122 119 -7 260 59 352 163 53 60 106 173 118 247 5 33 7
184 6 335 -2 151 -7 563 -10 915 -3 352 -8 824 -10 1049 -2 224 -6 410 -7 412
-2 1 -44 -18 -93 -43z"/>
<path d="M6 2810 c3 -52 6 -108 9 -125 2 -16 9 -68 15 -115 38 -289 141 -621
282 -905 59 -118 176 -318 190 -323 4 -2 8 -8 8 -13 0 -13 120 -174 200 -269
95 -114 292 -305 415 -403 298 -239 643 -421 1006 -531 105 -31 371 -90 444
-98 l30 -3 2 1330 1 1330 -29 -80 c-125 -345 -361 -593 -699 -732 -93 -39
-173 -60 -315 -84 -136 -22 -384 -20 -520 5 -121 23 -279 77 -384 131 -324
170 -554 491 -641 895 l-18 85 4 -95z"/>
<path d="M3390 2435 c-3 -25 -2 -2407 1 -2410 2 -2 24 0 49 5 25 5 65 11 90
15 81 11 352 83 467 124 414 145 790 380 1105 691 l117 115 -1 735 c0 600 -2
729 -12 705 -7 -17 -24 -55 -39 -85 -14 -30 -36 -80 -50 -110 -14 -30 -39 -85
-56 -123 -17 -37 -31 -69 -31 -72 0 -2 -13 -32 -29 -67 -16 -35 -50 -110 -76
-168 -26 -58 -58 -130 -72 -160 -14 -30 -54 -118 -88 -195 -34 -77 -74 -165
-88 -195 -14 -30 -43 -95 -65 -145 -21 -49 -56 -127 -77 -172 l-38 -83 -192 0
-192 0 -36 78 c-38 82 -364 809 -427 952 -21 47 -56 125 -79 173 -22 49 -41
90 -41 92 0 2 -15 36 -34 77 -18 40 -44 98 -58 128 -44 99 -47 105 -48 95z"/>
</g>
</svg>
